<?xml version="1.0" encoding="UTF-8"?>
<svg xmlns="http://www.w3.org/2000/svg" viewBox="0 0 64 64" fill="none">
  <defs>
    <linearGradient id="k" x1="10" y1="12" x2="54" y2="52" gradientUnits="userSpaceOnUse">
      <stop stop-color="#6D4CFF" />
      <stop offset="1" stop-color="#21D19F" />
    </linearGradient>
  </defs>
  <rect width="64" height="64" rx="16" fill="#07071A"/>
  <path
    d="M19.5 24.5c2.9-5 8.4-7.3 14.1-5.9l3.2.8c2.8.7 5.1 2.4 6.4 4.9 1.1 2.1 1.3 4.6.4 6.8-1.2 2.8-4 4.9-7.2 5.3l-3.1.4"
    stroke="url(#k)"
    stroke-width="6"
    stroke-linecap="round"
    stroke-linejoin="round"
  />
  <path
    d="M44.5 39.5c-2.9 5-8.4 7.3-14.1 5.9l-3.2-.8c-2.8-.7-5.1-2.4-6.4-4.9-1.1-2.1-1.3-4.6-.4-6.8 1.2-2.8 4-4.9 7.2-5.3l3.1-.4"
    stroke="url(#k)"
    stroke-width="6"
    stroke-linecap="round"
    stroke-linejoin="round"
  />
</svg>
