<?xml version="1.0" encoding="UTF-8"?>
<svg xmlns="http://www.w3.org/2000/svg" width="512" height="512" viewBox="0 0 64 64" fill="none">
  <defs>
    <linearGradient id="k" x1="10" y1="12" x2="54" y2="52" gradientUnits="userSpaceOnUse">
      <stop stop-color="#6D4CFF" />
      <stop offset="1" stop-color="#21D19F" />
    </linearGradient>
  </defs>

  <!-- outer hex (subtle) -->
  <path
    d="M24 6.5 12.5 13.2a6 6 0 0 0-3 5.2v27.2a6 6 0 0 0 3 5.2L24 57.5a16 16 0 0 0 16 0l11.5-6.7a6 6 0 0 0 3-5.2V18.4a6 6 0 0 0-3-5.2L40 6.5a16 16 0 0 0-16 0Z"
    stroke="url(#k)"
    stroke-opacity="0.25"
    stroke-width="3"
    stroke-linejoin="round"
  />

  <!-- interlocked ribbon mark -->
  <path
    d="M20.3 24.1c2.8-4.9 8.1-7.2 13.7-5.8l3.6.9c2.9.7 5.3 2.5 6.7 5.1 1.2 2.3 1.4 5 .4 7.4-1.3 3.1-4.4 5.4-7.9 5.8l-3.4.4"
    stroke="url(#k)"
    stroke-width="6"
    stroke-linecap="round"
    stroke-linejoin="round"
  />
  <path
    d="M43.7 39.9c-2.8 4.9-8.1 7.2-13.7 5.8l-3.6-.9c-2.9-.7-5.3-2.5-6.7-5.1-1.2-2.3-1.4-5-.4-7.4 1.3-3.1 4.4-5.4 7.9-5.8l3.4-.4"
    stroke="url(#k)"
    stroke-width="6"
    stroke-linecap="round"
    stroke-linejoin="round"
  />
</svg>
